<svg width="53" height="53" viewBox="0 0 53 53" fill="none" xmlns="http://www.w3.org/2000/svg">
<g id="Group 79">
<rect id="Rectangle 231" width="6.46341" height="6.46341" fill="#BBCE9B"/>
<rect id="Rectangle 241" y="11.6342" width="6.46341" height="6.46341" fill="#BBCE9B"/>
<rect id="Rectangle 251" y="23.2683" width="6.46341" height="6.46341" fill="#BBCE9B"/>
<rect id="Rectangle 261" y="34.9025" width="6.46341" height="6.46341" fill="#BBCE9B"/>
<rect id="Rectangle 271" y="46.5366" width="6.46341" height="6.46341" fill="#BBCE9B"/>
<rect id="Rectangle 232" x="11.6338" width="6.46341" height="6.46341" fill="#BBCE9B"/>
<rect id="Rectangle 242" x="11.6338" y="11.6342" width="6.46341" height="6.46341" fill="#BBCE9B"/>
<rect id="Rectangle 252" x="11.6338" y="23.2683" width="6.46341" height="6.46341" fill="#BBCE9B"/>
<rect id="Rectangle 262" x="11.6338" y="34.9025" width="6.46341" height="6.46341" fill="#BBCE9B"/>
<rect id="Rectangle 272" x="11.6338" y="46.5366" width="6.46341" height="6.46341" fill="#BBCE9B"/>
<rect id="Rectangle 233" x="23.2686" width="6.46341" height="6.46341" fill="#BBCE9B"/>
<rect id="Rectangle 243" x="23.2686" y="11.6342" width="6.46341" height="6.46341" fill="#BBCE9B"/>
<rect id="Rectangle 253" x="23.2686" y="23.2683" width="6.46341" height="6.46341" fill="#BBCE9B"/>
<rect id="Rectangle 263" x="23.2686" y="34.9025" width="6.46341" height="6.46341" fill="#BBCE9B"/>
<rect id="Rectangle 273" x="23.2686" y="46.5366" width="6.46341" height="6.46341" fill="#BBCE9B"/>
<rect id="Rectangle 234" x="34.9023" width="6.46341" height="6.46341" fill="#BBCE9B"/>
<rect id="Rectangle 244" x="34.9023" y="11.6342" width="6.46341" height="6.46341" fill="#BBCE9B"/>
<rect id="Rectangle 254" x="34.9023" y="23.2683" width="6.46341" height="6.46341" fill="#BBCE9B"/>
<rect id="Rectangle 264" x="34.9023" y="34.9025" width="6.46341" height="6.46341" fill="#BBCE9B"/>
<rect id="Rectangle 274" x="34.9023" y="46.5366" width="6.46341" height="6.46341" fill="#BBCE9B"/>
<rect id="Rectangle 235" x="46.5361" width="6.46341" height="6.46341" fill="#BBCE9B"/>
<rect id="Rectangle 245" x="46.5361" y="11.6342" width="6.46341" height="6.46341" fill="#BBCE9B"/>
<rect id="Rectangle 255" x="46.5361" y="23.2683" width="6.46341" height="6.46341" fill="#BBCE9B"/>
<rect id="Rectangle 265" x="46.5361" y="34.9025" width="6.46341" height="6.46341" fill="#BBCE9B"/>
<rect id="Rectangle 275" x="46.5361" y="46.5366" width="6.46341" height="6.46341" fill="#BBCE9B"/>
</g>
</svg>
